<?xml version="1.0" encoding="utf-8"?>
<!-- Generator: Adobe Illustrator 16.0.0, SVG Export Plug-In . SVG Version: 6.00 Build 0)  -->
<!DOCTYPE svg PUBLIC "-//W3C//DTD SVG 1.1//EN" "http://www.w3.org/Graphics/SVG/1.1/DTD/svg11.dtd">
<svg version="1.1" id="Layer_1" xmlns="http://www.w3.org/2000/svg" xmlns:xlink="http://www.w3.org/1999/xlink" x="0px" y="0px"
	 width="24px" height="24px" viewBox="-451 549 24 24" enable-background="new -451 549 24 24" xml:space="preserve">
<path fill="#00D1B2" d="M-427.453,559.931l-10.479-10.478c-0.604-0.604-1.583-0.604-2.186,0l-2.176,2.176l2.76,2.76
	c0.642-0.217,1.376-0.071,1.888,0.44c0.515,0.515,0.658,1.257,0.436,1.899l2.661,2.66c0.644-0.221,1.386-0.078,1.899,0.438
	c0.719,0.718,0.719,1.881,0,2.6s-1.882,0.719-2.602,0c-0.54-0.539-0.674-1.334-0.399-1.999l-2.481-2.481v6.529
	c0.175,0.086,0.341,0.201,0.486,0.348c0.718,0.719,0.718,1.883,0,2.602c-0.719,0.717-1.883,0.717-2.601,0
	c-0.718-0.719-0.718-1.883,0-2.602c0.178-0.178,0.383-0.311,0.603-0.4v-6.591c-0.219-0.09-0.424-0.223-0.603-0.401
	c-0.544-0.544-0.675-1.343-0.396-2.011l-2.721-2.722l-7.185,7.186c-0.604,0.604-0.604,1.582,0,2.186l10.479,10.479
	c0.603,0.604,1.582,0.604,2.185,0l10.431-10.43C-426.849,561.514-426.849,560.534-427.453,559.931z"/>
</svg>
